{
    "asset" : {
        "generator" : "Khronos glTF Blender I/O v3.4.50",
        "version" : "2.0"
    },
    "scene" : 0,
    "scenes" : [
        {
            "name" : "Scene",
            "nodes" : [
                0
            ]
        }
    ],
    "nodes" : [
        {
            "mesh" : 0,
            "name" : "Barrel",
            "scale" : [
                1,
                1.2999999523162842,
                1
            ],
            "translation" : [
                0,
                1.2999999523162842,
                0
            ]
        }
    ],
    "materials" : [
        {
            "doubleSided" : true,
            "name" : "Material.001",
            "pbrMetallicRoughness" : {
                "baseColorFactor" : [
                    0.3873870372772217,
                    0.09051923453807831,
                    0.01156431995332241,
                    1
                ],
                "metallicFactor" : 0,
                "roughnessFactor" : 0.8999999761581421
            }
        },
        {
            "doubleSided" : true,
            "emissiveFactor" : [
                0.08940055221319199,
                0.08940055221319199,
                0.08940055221319199
            ],
            "name" : "Material.002",
            "pbrMetallicRoughness" : {
                "baseColorFactor" : [
                    0.2280084788799286,
                    0.2280084788799286,
                    0.2280084788799286,
                    1
                ],
                "roughnessFactor" : 0.3499999940395355
            }
        }
    ],
    "meshes" : [
        {
            "name" : "Cylinder.001",
            "primitives" : [
                {
                    "attributes" : {
                        "POSITION" : 0,
                        "TEXCOORD_0" : 1,
                        "NORMAL" : 2
                    },
                    "indices" : 3,
                    "material" : 0
                },
                {
                    "attributes" : {
                        "POSITION" : 4,
                        "TEXCOORD_0" : 5,
                        "NORMAL" : 6
                    },
                    "indices" : 7,
                    "material" : 1
                }
            ]
        }
    ],
    "accessors" : [
        {
            "bufferView" : 0,
            "componentType" : 5126,
            "count" : 600,
            "max" : [
                1.1419293880462646,
                1.015413761138916,
                1.1419293880462646
            ],
            "min" : [
                -1.1419293880462646,
                -1,
                -1.1419293880462646
            ],
            "type" : "VEC3"
        },
        {
            "bufferView" : 1,
            "componentType" : 5126,
            "count" : 600,
            "type" : "VEC2"
        },
        {
            "bufferView" : 2,
            "componentType" : 5126,
            "count" : 600,
            "type" : "VEC3"
        },
        {
            "bufferView" : 3,
            "componentType" : 5123,
            "count" : 1080,
            "type" : "SCALAR"
        },
        {
            "bufferView" : 4,
            "componentType" : 5126,
            "count" : 586,
            "max" : [
                1.2004759311676025,
                0.5966293215751648,
                1.2004759311676025
            ],
            "min" : [
                -1.2004759311676025,
                -0.5869612693786621,
                -1.2004759311676025
            ],
            "type" : "VEC3"
        },
        {
            "bufferView" : 5,
            "componentType" : 5126,
            "count" : 586,
            "type" : "VEC2"
        },
        {
            "bufferView" : 6,
            "componentType" : 5126,
            "count" : 586,
            "type" : "VEC3"
        },
        {
            "bufferView" : 7,
            "componentType" : 5123,
            "count" : 882,
            "type" : "SCALAR"
        }
    ],
    "bufferViews" : [
        {
            "buffer" : 0,
            "byteLength" : 7200,
            "byteOffset" : 0,
            "target" : 34962
        },
        {
            "buffer" : 0,
            "byteLength" : 4800,
            "byteOffset" : 7200,
            "target" : 34962
        },
        {
            "buffer" : 0,
            "byteLength" : 7200,
            "byteOffset" : 12000,
            "target" : 34962
        },
        {
            "buffer" : 0,
            "byteLength" : 2160,
            "byteOffset" : 19200,
            "target" : 34963
        },
        {
            "buffer" : 0,
            "byteLength" : 7032,
            "byteOffset" : 21360,
            "target" : 34962
        },
        {
            "buffer" : 0,
            "byteLength" : 4688,
            "byteOffset" : 28392,
            "target" : 34962
        },
        {
            "buffer" : 0,
            "byteLength" : 7032,
            "byteOffset" : 33080,
            "target" : 34962
        },
        {
            "buffer" : 0,
            "byteLength" : 1764,
            "byteOffset" : 40112,
            "target" : 34963
        }
    ],
    "buffers" : [
        {
            "byteLength" : 41876,
            "uri" : "barrel.bin"
        }
    ]
}
